<svg width="196.000000" height="66.792236" viewBox="0 0 196 66.7922" fill="none" xmlns="http://www.w3.org/2000/svg" xmlns:xlink="http://www.w3.org/1999/xlink">
	<desc>
			Created with Pixso.
	</desc>
	<defs/>
	<path id="online control" d="M16.4156 18.6C15.109 18.6 13.9623 18.32 12.9756 17.76C12.0023 17.1867 11.249 16.3533 10.7156 15.26C10.1823 14.1667 9.91562 12.8467 9.91562 11.3C9.91562 9.75333 10.1823 8.43333 10.7156 7.34C11.249 6.24666 12.0023 5.42 12.9756 4.86C13.9623 4.28666 15.109 4 16.4156 4C17.7223 4 18.8623 4.28666 19.8356 4.86C20.8223 5.42 21.5823 6.24666 22.1156 7.34C22.649 8.43333 22.9156 9.75333 22.9156 11.3C22.9156 12.8467 22.649 14.1667 22.1156 15.26C21.5823 16.3533 20.8223 17.1867 19.8356 17.76C18.8623 18.32 17.7223 18.6 16.4156 18.6ZM16.4156 18.2C16.9356 18.2 17.4156 17.98 17.8556 17.54C18.309 17.1 18.6823 16.3667 18.9756 15.34C19.269 14.3133 19.4156 12.9667 19.4156 11.3C19.4156 9.63333 19.269 8.28667 18.9756 7.26C18.6823 6.23333 18.309 5.5 17.8556 5.06C17.4156 4.62 16.9356 4.4 16.4156 4.4C15.8956 4.4 15.409 4.62 14.9556 5.06C14.5156 5.5 14.149 6.23333 13.8556 7.26C13.5623 8.28667 13.4156 9.63333 13.4156 11.3C13.4156 12.9667 13.5623 14.3133 13.8556 15.34C14.149 16.3667 14.5156 17.1 14.9556 17.54C15.409 17.98 15.8956 18.2 16.4156 18.2ZM26.6203 7.7L26.6203 17.4L28.2203 18L28.2203 18.3L24.4203 18.3L24.4203 18L26.0203 17.4L26.0203 5L24.6203 4.6L24.6203 4.3L26.7203 4.3C27.427 4.3 27.9803 4.42667 28.3803 4.68C28.7803 4.93333 29.1603 5.27333 29.5203 5.7L35.9203 13.2L35.9203 5.2L34.3203 4.6L34.3203 4.3L38.1203 4.3L38.1203 4.6L36.5203 5.2L36.5203 18.6L35.9203 18.6L26.6203 7.7ZM39.4297 18L40.6297 17.7L40.6297 4.9L39.4297 4.6L39.4297 4.3L45.1297 4.3L45.1297 4.6L43.9297 4.9L43.9297 17.8L48.2297 17.8C48.2297 16.96 48.443 16.18 48.8697 15.46C49.0564 15.1533 49.2764 14.9 49.5297 14.7L50.1297 14.7L50.1297 18.3L39.4297 18.3L39.4297 18ZM51.6367 18.3L51.6367 18L52.8367 17.7L52.8367 4.9L51.6367 4.6L51.6367 4.3L57.3367 4.3L57.3367 4.6L56.1367 4.9L56.1367 17.7L57.3367 18L57.3367 18.3L51.6367 18.3ZM60.9367 7.7L60.9367 17.4L62.5367 18L62.5367 18.3L58.7367 18.3L58.7367 18L60.3367 17.4L60.3367 5L58.9367 4.6L58.9367 4.3L61.0367 4.3C61.7434 4.3 62.2967 4.42667 62.6967 4.68C63.0967 4.93333 63.4767 5.27333 63.8367 5.7L70.2367 13.2L70.2367 5.2L68.6367 4.6L68.6367 4.3L72.4367 4.3L72.4367 4.6L70.8367 5.2L70.8367 18.6L70.2367 18.6L60.9367 7.7ZM73.7461 18L74.9461 17.7L74.9461 4.9L73.7461 4.6L73.7461 4.3L84.4461 4.3L84.4461 7.9L83.8461 7.9C83.5928 7.7 83.3728 7.44667 83.1861 7.14C82.7594 6.42 82.5461 5.64 82.5461 4.8L78.2461 4.8L78.2461 11.1L80.5461 11.1C80.6394 10.5933 80.8128 10.12 81.0661 9.68C81.1728 9.48 81.2994 9.28667 81.4461 9.1L82.0461 9.1L82.0461 13.6L81.4461 13.6C81.2994 13.4133 81.1728 13.22 81.0661 13.02C80.8128 12.58 80.6394 12.1067 80.5461 11.6L78.2461 11.6L78.2461 17.8L82.9461 17.8C82.9461 16.96 83.1594 16.18 83.5861 15.46C83.7728 15.1533 83.9928 14.9 84.2461 14.7L84.8461 14.7L84.8461 18.3L73.7461 18.3L73.7461 18ZM98.9422 18.6C96.8089 18.6 95.1422 17.9667 93.9422 16.7C92.7422 15.4333 92.1422 13.6333 92.1422 11.3C92.1422 9.76667 92.4022 8.45333 92.9222 7.36C93.4555 6.25333 94.1955 5.42 95.1422 4.86C96.1022 4.28666 97.2089 4 98.4622 4C99.2222 4 99.9889 4.22 100.762 4.66C101.056 4.82 101.349 5.03333 101.642 5.3C101.869 4.95333 102.102 4.68 102.342 4.48C102.582 4.30666 102.716 4.21333 102.742 4.2L103.242 4.2L103.242 8L102.442 8C102.269 7.36 102.009 6.78 101.662 6.26C101.342 5.75333 100.942 5.33333 100.462 5C99.9955 4.66666 99.4555 4.5 98.8422 4.5C97.9222 4.5 97.1555 5.03333 96.5422 6.1C95.9422 7.16667 95.6422 8.9 95.6422 11.3C95.6422 13.74 95.9689 15.4867 96.6222 16.54C97.2889 17.58 98.1955 18.1 99.3422 18.1C99.9689 18.1 100.562 17.9267 101.122 17.58C101.696 17.22 102.156 16.7467 102.502 16.16C102.862 15.5733 103.042 14.9533 103.042 14.3L103.542 14.3C103.542 15.06 103.336 15.7733 102.922 16.44C102.522 17.0933 101.969 17.62 101.262 18.02C100.569 18.4067 99.7955 18.6 98.9422 18.6ZM111.259 18.6C109.953 18.6 108.806 18.32 107.819 17.76C106.846 17.1867 106.093 16.3533 105.559 15.26C105.026 14.1667 104.759 12.8467 104.759 11.3C104.759 9.75333 105.026 8.43333 105.559 7.34C106.093 6.24666 106.846 5.42 107.819 4.86C108.806 4.28666 109.953 4 111.259 4C112.566 4 113.706 4.28666 114.679 4.86C115.666 5.42 116.426 6.24666 116.959 7.34C117.493 8.43333 117.759 9.75333 117.759 11.3C117.759 12.8467 117.493 14.1667 116.959 15.26C116.426 16.3533 115.666 17.1867 114.679 17.76C113.706 18.32 112.566 18.6 111.259 18.6ZM111.259 18.2C111.779 18.2 112.259 17.98 112.699 17.54C113.153 17.1 113.526 16.3667 113.819 15.34C114.113 14.3133 114.259 12.9667 114.259 11.3C114.259 9.63333 114.113 8.28667 113.819 7.26C113.526 6.23333 113.153 5.5 112.699 5.06C112.259 4.62 111.779 4.4 111.259 4.4C110.739 4.4 110.253 4.62 109.799 5.06C109.359 5.5 108.993 6.23333 108.699 7.26C108.406 8.28667 108.259 9.63333 108.259 11.3C108.259 12.9667 108.406 14.3133 108.699 15.34C108.993 16.3667 109.359 17.1 109.799 17.54C110.253 17.98 110.739 18.2 111.259 18.2ZM121.464 7.7L121.464 17.4L123.064 18L123.064 18.3L119.264 18.3L119.264 18L120.864 17.4L120.864 5L119.464 4.6L119.464 4.3L121.564 4.3C122.271 4.3 122.824 4.42667 123.224 4.68C123.624 4.93333 124.004 5.27333 124.364 5.7L130.764 13.2L130.764 5.2L129.164 4.6L129.164 4.3L132.964 4.3L132.964 4.6L131.364 5.2L131.364 18.6L130.764 18.6L121.464 7.7ZM136.969 18L138.169 17.7L138.169 4.8L135.869 4.8C135.869 5.61333 135.649 6.39333 135.209 7.14C135.022 7.44667 134.809 7.7 134.569 7.9L133.969 7.9L133.969 4.3L145.669 4.3L145.669 7.9L145.069 7.9C144.815 7.7 144.595 7.44667 144.409 7.14C143.982 6.42 143.769 5.64 143.769 4.8L141.469 4.8L141.469 17.7L142.669 18L142.669 18.3L136.969 18.3L136.969 18ZM147.164 18L148.364 17.7L148.364 4.9L147.164 4.6L147.164 4.3L152.464 4.3C154.731 4.3 156.364 4.64666 157.364 5.34C158.364 6.02 158.864 6.97333 158.864 8.2C158.864 9.02667 158.644 9.7 158.204 10.22C157.764 10.7267 157.197 11.1067 156.504 11.36C155.771 11.64 154.991 11.7867 154.164 11.8L154.164 11.9C154.657 11.9267 155.091 12 155.464 12.12C156.397 12.4133 157.031 12.94 157.364 13.7L159.164 17.7L160.164 18L160.164 18.3L157.364 18.3C156.271 18.3 155.471 17.7333 154.964 16.6L152.964 12.1L151.664 12.1L151.664 17.7L153.064 18L153.064 18.3L147.164 18.3L147.164 18ZM152.464 11.6C153.397 11.6 154.131 11.3067 154.664 10.72C155.197 10.1333 155.464 9.29333 155.464 8.2C155.464 7.10667 155.197 6.26667 154.664 5.68C154.131 5.09333 153.397 4.8 152.464 4.8L151.664 4.8L151.664 11.6L152.464 11.6ZM167.373 18.6C166.066 18.6 164.919 18.32 163.933 17.76C162.959 17.1867 162.206 16.3533 161.673 15.26C161.139 14.1667 160.873 12.8467 160.873 11.3C160.873 9.75333 161.139 8.43333 161.673 7.34C162.206 6.24666 162.959 5.42 163.933 4.86C164.919 4.28666 166.066 4 167.373 4C168.679 4 169.819 4.28666 170.793 4.86C171.779 5.42 172.539 6.24666 173.073 7.34C173.606 8.43333 173.873 9.75333 173.873 11.3C173.873 12.8467 173.606 14.1667 173.073 15.26C172.539 16.3533 171.779 17.1867 170.793 17.76C169.819 18.32 168.679 18.6 167.373 18.6ZM167.373 18.2C167.893 18.2 168.373 17.98 168.813 17.54C169.266 17.1 169.639 16.3667 169.933 15.34C170.226 14.3133 170.373 12.9667 170.373 11.3C170.373 9.63333 170.226 8.28667 169.933 7.26C169.639 6.23333 169.266 5.5 168.813 5.06C168.373 4.62 167.893 4.4 167.373 4.4C166.853 4.4 166.366 4.62 165.913 5.06C165.473 5.5 165.106 6.23333 164.813 7.26C164.519 8.28667 164.373 9.63333 164.373 11.3C164.373 12.9667 164.519 14.3133 164.813 15.34C165.106 16.3667 165.473 17.1 165.913 17.54C166.366 17.98 166.853 18.2 167.373 18.2ZM175.777 18L176.977 17.7L176.977 4.9L175.777 4.6L175.777 4.3L181.477 4.3L181.477 4.6L180.277 4.9L180.277 17.8L184.577 17.8C184.577 16.96 184.791 16.18 185.217 15.46C185.404 15.1533 185.624 14.9 185.877 14.7L186.477 14.7L186.477 18.3L175.777 18.3L175.777 18Z" fill="#FFFFFF" fill-opacity="1.000000" fill-rule="evenodd"/>
	<rect id="Rectangle 6.7" x="41.000488" y="51.812012" rx="0.771672" width="32.000000" height="1.543344" fill="#E3B873" fill-opacity="1.000000"/>
	<rect id="Rectangle 6.8" x="123.000488" y="51.812012" rx="0.771672" width="32.000000" height="1.543344" fill="#E3B873" fill-opacity="1.000000"/>
	<path id="Vector" d="M114.851 47.7656L90.7306 38.8293C90.4221 38.7153 90.0793 38.873 89.9655 39.1819C89.9653 39.1821 89.9653 39.1824 89.965 39.1826L87.2949 46.4507C87.1814 46.7595 87.3396 47.1021 87.6484 47.2156L87.6489 47.2156L90.4448 48.2419L89.8288 49.9204C89.7155 50.2292 89.8738 50.5713 90.1825 50.6846L95.7753 52.738L95.3643 53.8569C94.9908 54.8589 95.3393 55.9871 96.2134 56.6033L96.2134 59.6433L88.1974 59.6433C87.8094 58.7563 87.0154 58.1123 86.0671 57.9158L86.0671 56.6648C86.0671 56.3357 85.8006 56.0691 85.4713 56.0691L83.0694 56.0691C82.7404 56.0691 82.4736 56.3357 82.4736 56.6648L82.4736 66.1965C82.4736 66.5259 82.7404 66.7922 83.0694 66.7922L85.4713 66.7922C85.8006 66.7922 86.0671 66.5259 86.0671 66.1965L86.0671 64.9458C87.0154 64.749 87.8094 64.1052 88.1974 63.2178L96.2134 63.2178L96.2134 63.8137C96.2134 64.8008 97.0134 65.6011 98.0005 65.6011C98.9875 65.6011 99.7878 64.8008 99.7878 63.8137L99.7878 57.2141C100.329 56.9456 100.748 56.4797 100.956 55.9121L101.367 54.7935L106.4 56.6401C106.466 56.6646 106.535 56.6768 106.605 56.6768C106.855 56.6768 107.079 56.521 107.165 56.2864L107.388 55.6782C109.327 56.043 111.194 54.7671 111.558 52.8289C111.693 52.1125 111.606 51.3723 111.308 50.7073L114.919 48.8528C115.212 48.7029 115.328 48.3438 115.178 48.051C115.11 47.918 114.994 47.8154 114.854 47.7637L114.851 47.7656ZM97.4047 57.146L97.8979 57.3247C98.1225 57.4053 98.358 57.4517 98.5962 57.4619L98.5962 59.6433L97.4047 59.6433L97.4047 57.146ZM84.8758 65.6011L83.6652 65.6011L83.6652 57.2605L84.8758 57.2605L84.8758 65.6011ZM87.2586 62.0266C87.2576 62.7837 86.7806 63.4583 86.0671 63.7119L86.0671 59.1497C86.7806 59.4028 87.2576 60.0776 87.2586 60.835L87.2586 62.0266ZM88.4687 60.835L98.5962 60.835L98.5962 62.0266L88.4687 62.0266L88.4687 60.835ZM98.0005 64.4094C97.6714 64.4094 97.4047 64.1426 97.4047 63.8137L97.4047 63.2178L98.5962 63.2178L98.5962 63.8137C98.5962 64.1426 98.3295 64.4094 98.0005 64.4094ZM100.249 54.3831L99.8378 55.502C99.6108 56.1189 98.9265 56.4355 98.309 56.209L97.1884 55.7983C96.5709 55.5718 96.2539 54.8872 96.4806 54.2693C96.4806 54.2693 96.4806 54.2693 96.4806 54.269L96.8919 53.1511L99.9116 54.2595L100.249 54.3831ZM106.252 55.3184L91.1523 49.7737L91.5636 48.6548L100.511 51.9404C100.723 52.0176 100.96 51.9692 101.125 51.8152L102.797 50.2415L107.484 51.9629L106.252 55.3184ZM110.28 52.99C109.903 54.0078 108.887 54.6438 107.807 54.5391L108.728 52.0315L110.231 51.2573C110.466 51.8079 110.484 52.4272 110.28 52.99ZM108.269 50.9302C108.238 50.9329 108.206 50.9385 108.176 50.9468L102.864 48.9963C102.652 48.9187 102.415 48.9668 102.25 49.1213L100.577 50.6956L88.6187 46.3042L90.8773 40.1543L113.168 48.4126L108.269 50.9302Z" fill="#E3B873" fill-opacity="1.000000" fill-rule="nonzero"/>
	<path id="Vector 2" d="M94.1292 46.7034L93.6038 48.1233M96.419 47.5435L95.8935 48.9634M98.641 48.3699L98.1155 49.7898" stroke="#E3B873" stroke-opacity="1.000000" stroke-width="1.000000"/>
</svg>
