<svg width="32.781097" height="31.345215" viewBox="0 0 32.7811 31.3452" fill="none" xmlns="http://www.w3.org/2000/svg" xmlns:xlink="http://www.w3.org/1999/xlink">
	<desc>
			Created with Pixso.
	</desc>
	<defs/>
	<path d="M24.2462 2.19965C23.9833 0.946411 22.8422 0 21.4773 0C21.1653 0 20.9121 0.245789 20.9121 0.549927C20.9121 0.854004 21.1653 1.09985 21.4773 1.09985C22.4121 1.09985 23.1729 1.84003 23.1729 2.74957C23.1729 3.65912 22.4121 4.39935 21.4773 4.39935C21.1653 4.39935 20.9121 4.64514 20.9121 4.94922C20.9121 5.25336 21.1653 5.49915 21.4773 5.49915C22.8416 5.49915 23.9833 4.55273 24.2462 3.2995L31.6507 3.2995L31.6507 8.24872L1.13037 8.24872L1.13037 3.2995L9.04306 3.2995L10.7386 3.2995C11.0506 3.2995 11.3038 3.05371 11.3038 2.74957C11.3038 2.4455 11.0506 2.19965 10.7386 2.19965L9.71225 2.19965C9.94623 1.56067 10.568 1.09985 11.3038 1.09985C12.2386 1.09985 12.9994 1.84003 12.9994 2.74957C12.9994 3.65912 12.2386 4.39935 11.3038 4.39935C10.9919 4.39935 10.7386 4.64514 10.7386 4.94922C10.7386 5.25336 10.9919 5.49915 11.3038 5.49915C12.8621 5.49915 14.1298 4.26569 14.1298 2.74957C14.1298 1.23346 12.8621 0 11.3038 0C9.93945 0 8.79776 0.946411 8.53494 2.19965L0 2.19965L0 9.34857L0 31.3452L32.7811 31.3452L32.7811 9.34857L32.7811 2.19965L24.2462 2.19965ZM31.6507 30.2454L1.13037 30.2454L1.13037 9.34857L31.6507 9.34857L31.6507 30.2454Z" fill="#FFFFFF" fill-opacity="1.000000" fill-rule="nonzero"/>
	<path d="M14.695 1.09985C15.6299 1.09985 16.3906 1.84003 16.3906 2.74957C16.3906 3.65912 15.6299 4.39935 14.695 4.39935C14.383 4.39935 14.1298 4.64514 14.1298 4.94922C14.1298 5.25336 14.383 5.49915 14.695 5.49915C16.2532 5.49915 17.521 4.26569 17.521 2.74957C17.521 1.23346 16.2532 0 14.695 0C14.383 0 14.1298 0.245789 14.1298 0.549927C14.1298 0.854004 14.383 1.09985 14.695 1.09985Z" fill="#FFFFFF" fill-opacity="1.000000" fill-rule="nonzero"/>
	<path d="M18.0862 1.09985C19.021 1.09985 19.7817 1.84003 19.7817 2.74957C19.7817 3.65912 19.021 4.39935 18.0862 4.39935C17.7742 4.39935 17.521 4.64514 17.521 4.94922C17.521 5.25336 17.7742 5.49915 18.0862 5.49915C19.6444 5.49915 20.9121 4.26569 20.9121 2.74957C20.9121 1.23346 19.6444 0 18.0862 0C17.7742 0 17.521 0.245789 17.521 0.549927C17.521 0.854004 17.7742 1.09985 18.0862 1.09985Z" fill="#FFFFFF" fill-opacity="1.000000" fill-rule="nonzero"/>
	<path d="M5.08676 13.7473L17.521 13.7473C17.833 13.7473 18.0862 13.5015 18.0862 13.1974C18.0862 12.8932 17.833 12.6475 17.521 12.6475L5.08676 12.6475C4.77478 12.6475 4.52158 12.8932 4.52158 13.1974C4.52158 13.5015 4.77478 13.7473 5.08676 13.7473Z" fill="#FFFFFF" fill-opacity="1.000000" fill-rule="nonzero"/>
	<path d="M27.6944 21.4468L19.2165 21.4468C18.9045 21.4468 18.6513 21.6926 18.6513 21.9967C18.6513 22.3008 18.9045 22.5466 19.2165 22.5466L27.6944 22.5466C28.0064 22.5466 28.2596 22.3008 28.2596 21.9967C28.2596 21.6926 28.0064 21.4468 27.6944 21.4468Z" fill="#FFFFFF" fill-opacity="1.000000" fill-rule="nonzero"/>
	<path d="M5.08676 18.1472L10.7387 18.1472C11.0507 18.1472 11.3039 17.9014 11.3039 17.5973C11.3039 17.2932 11.0507 17.0474 10.7387 17.0474L5.08676 17.0474C4.77478 17.0474 4.52158 17.2932 4.52158 17.5973C4.52158 17.9014 4.77478 18.1472 5.08676 18.1472Z" fill="#FFFFFF" fill-opacity="1.000000" fill-rule="nonzero"/>
	<path d="M27.6945 25.8457L22.0425 25.8457C21.7306 25.8457 21.4774 26.0915 21.4774 26.3956C21.4774 26.6997 21.7306 26.9456 22.0425 26.9456L27.6945 26.9456C28.0064 26.9456 28.2596 26.6997 28.2596 26.3956C28.2596 26.0915 28.0064 25.8457 27.6945 25.8457Z" fill="#FFFFFF" fill-opacity="1.000000" fill-rule="nonzero"/>
	<path d="M15.8254 17.5973C15.8254 17.9014 16.0786 18.1472 16.3906 18.1472L24.8684 18.1472C25.1804 18.1472 25.4336 17.9014 25.4336 17.5973C25.4336 17.2932 25.1804 17.0474 24.8684 17.0474L16.3906 17.0474C16.0786 17.0474 15.8254 17.2932 15.8254 17.5973Z" fill="#FFFFFF" fill-opacity="1.000000" fill-rule="nonzero"/>
	<path d="M13.9659 17.9882C14.0677 17.8837 14.1299 17.7407 14.1299 17.5977C14.1299 17.4542 14.0677 17.3112 13.9659 17.2073C13.7568 17.0038 13.3725 17.0038 13.1634 17.2073C13.0616 17.3112 12.9995 17.4542 12.9995 17.5977C12.9995 17.7407 13.0616 17.8837 13.1634 17.9882C13.2708 18.0921 13.4177 18.1476 13.5647 18.1476C13.7116 18.1476 13.8586 18.0921 13.9659 17.9882Z" fill="#FFFFFF" fill-opacity="1.000000" fill-rule="nonzero"/>
	<path d="M7.3475 21.9967C7.3475 22.3008 7.60071 22.5466 7.91269 22.5466L16.3906 22.5466C16.7025 22.5466 16.9557 22.3008 16.9557 21.9967C16.9557 21.6926 16.7025 21.4468 16.3906 21.4468L7.91269 21.4468C7.60071 21.4468 7.3475 21.6926 7.3475 21.9967Z" fill="#FFFFFF" fill-opacity="1.000000" fill-rule="nonzero"/>
	<path d="M5.08676 22.5469C5.2337 22.5469 5.38068 22.4864 5.48807 22.3874C5.58978 22.2829 5.65195 22.14 5.65195 21.9969C5.65195 21.8535 5.58978 21.7104 5.48807 21.612C5.27893 21.403 4.89459 21.403 4.68549 21.6065C4.58374 21.7104 4.52158 21.8535 4.52158 21.9969C4.52158 22.14 4.58374 22.2829 4.68549 22.3874C4.79288 22.4864 4.93417 22.5469 5.08676 22.5469Z" fill="#FFFFFF" fill-opacity="1.000000" fill-rule="nonzero"/>
	<path d="M27.6944 18.1476C27.8414 18.1476 27.9883 18.0921 28.0957 17.9882C28.2031 17.8837 28.2596 17.7407 28.2596 17.5977C28.2596 17.4542 28.2031 17.3112 28.0957 17.2073C27.881 17.0038 27.5023 17.0038 27.2932 17.2073C27.1914 17.3112 27.1292 17.4542 27.1292 17.5977C27.1292 17.7407 27.1914 17.8837 27.2932 17.9882C27.4005 18.0921 27.5475 18.1476 27.6944 18.1476Z" fill="#FFFFFF" fill-opacity="1.000000" fill-rule="nonzero"/>
	<path d="M19.2166 25.8457L5.08676 25.8457C4.77478 25.8457 4.52158 26.0915 4.52158 26.3956C4.52158 26.6997 4.77478 26.9456 5.08676 26.9456L19.2166 26.9456C19.5285 26.9456 19.7817 26.6997 19.7817 26.3956C19.7817 26.0915 19.5285 25.8457 19.2166 25.8457Z" fill="#FFFFFF" fill-opacity="1.000000" fill-rule="nonzero"/>
</svg>
