<svg width="32.844910" height="31.845215" viewBox="0 0 32.8449 31.8452" fill="none" xmlns="http://www.w3.org/2000/svg" xmlns:xlink="http://www.w3.org/1999/xlink">
	<desc>
			Created with Pixso.
	</desc>
	<defs/>
	<path id="Vector 2 (Stroke)" d="M3.13562 0.631897C3.13562 0.420959 3.31384 0.25 3.53369 0.25L32.1968 0.25C32.4167 0.25 32.5949 0.420959 32.5949 0.631897L32.5949 28.254C32.5949 28.4648 32.4167 28.6358 32.1968 28.6358C31.9769 28.6358 31.7987 28.4648 31.7987 28.254L31.7987 1.01373L3.53369 1.01373C3.31384 1.01373 3.13562 0.842773 3.13562 0.631897Z" fill="#FFFFFF" fill-opacity="1.000000" fill-rule="evenodd"/>
	<path id="Vector 2 (Stroke)" d="M3.13562 0.631897C3.13562 0.842773 3.31384 1.01373 3.53369 1.01373L31.7987 1.01373L31.7987 28.254C31.7987 28.4648 31.9769 28.6358 32.1968 28.6358C32.4167 28.6358 32.5949 28.4648 32.5949 28.254L32.5949 0.631897C32.5949 0.420959 32.4167 0.25 32.1968 0.25L3.53369 0.25C3.31384 0.25 3.13562 0.420959 3.13562 0.631897Z" stroke="#FFFFFF" stroke-opacity="1.000000" stroke-width="0.500000" stroke-linejoin="round"/>
	<path id="Arrow (Stroke)" d="M0.365662 5.90771L2.87915 3.39423C3.03339 3.23999 3.28351 3.23999 3.43774 3.39423L5.95123 5.90771C6.10547 6.06195 6.10547 6.31207 5.95123 6.46631C5.797 6.62054 5.54694 6.62054 5.39264 6.46631L3.55341 4.62701L3.55341 28.6875L2.76349 28.6875L2.76349 4.62701L0.924255 6.46631C0.77002 6.62054 0.519897 6.62054 0.365662 6.46631C0.211426 6.31207 0.211426 6.06195 0.365662 5.90771Z" fill="#FFFFFF" fill-opacity="1.000000" fill-rule="evenodd"/>
	<path id="Arrow (Stroke)" d="M2.70239 3.21747L0.188904 5.73096Q0.0944214 5.82544 0.0472412 5.93945Q0 6.05347 0 6.18701Q0 6.32062 0.0472412 6.43463Q0.0944214 6.54865 0.188904 6.64307Q0.283386 6.73755 0.3974 6.78473Q0.511414 6.83197 0.644958 6.83197Q0.778503 6.83197 0.892517 6.78473Q1.00653 6.73755 1.10101 6.64307L2.51349 5.23059L2.51349 28.9375L3.80341 28.9375L3.80341 5.23059L5.21588 6.64307Q5.31036 6.73755 5.42438 6.78473Q5.53839 6.83197 5.67194 6.83197Q5.80554 6.83197 5.91949 6.78473Q6.03357 6.73755 6.12799 6.64307Q6.22247 6.54858 6.26965 6.43457Q6.31689 6.32056 6.31689 6.18701Q6.31689 6.05341 6.26965 5.93939Q6.22247 5.82538 6.12799 5.73096L3.6145 3.21747Q3.52008 3.12299 3.40601 3.07581Q3.29205 3.02856 3.15845 3.02856Q3.0249 3.02856 2.91089 3.07581Q2.79688 3.12299 2.70239 3.21747ZM3.55341 4.98059L3.55341 4.62701L5.39264 6.46631C5.54694 6.62054 5.797 6.62054 5.95123 6.46631C6.10547 6.31207 6.10547 6.06195 5.95123 5.90771L3.43774 3.39423C3.28351 3.23999 3.03339 3.23999 2.87915 3.39423L0.365662 5.90771C0.211426 6.06195 0.211426 6.31207 0.365662 6.46631C0.519897 6.62054 0.77002 6.62054 0.924255 6.46631L2.76349 4.62701L2.76349 28.6875L3.55341 28.6875L3.55341 4.98059Z" fill="#FFFFFF" fill-opacity="1.000000" fill-rule="evenodd"/>
	<path id="Arrow (Stroke)" d="M25.6611 25.894L28.1877 28.4075C28.3428 28.5617 28.3428 28.8118 28.1877 28.9661L25.6611 31.4796C25.5061 31.6338 25.2547 31.6338 25.0997 31.4796C24.9446 31.3253 24.9446 31.0753 25.0997 30.921L26.9485 29.0817L2.76251 29.0817L2.76251 28.2918L26.9485 28.2918L25.0997 26.4526C24.9446 26.2983 24.9446 26.0482 25.0997 25.894C25.2547 25.7397 25.5061 25.7397 25.6611 25.894Z" fill="#FFFFFF" fill-opacity="1.000000" fill-rule="evenodd"/>
	<path id="Arrow (Stroke)" d="M28.3641 28.2303L25.8375 25.7167Q25.7432 25.623 25.6297 25.5759Q25.515 25.5283 25.3804 25.5283Q25.2458 25.5283 25.131 25.5759Q25.0175 25.623 24.9233 25.7167Q24.8278 25.8118 24.7803 25.9266Q24.7333 26.0402 24.7333 26.1733Q24.7333 26.3063 24.7803 26.4199Q24.8278 26.5348 24.9233 26.6298L26.3427 28.0418L2.51251 28.0418L2.51251 29.3317L26.3427 29.3317L24.9233 30.7438Q24.8278 30.8387 24.7803 30.9536Q24.7333 31.0673 24.7333 31.2003Q24.7333 31.3333 24.7803 31.4469Q24.8278 31.5618 24.9233 31.6568Q25.0175 31.7505 25.131 31.7976Q25.2458 31.8452 25.3804 31.8452Q25.515 31.8452 25.6297 31.7976Q25.7432 31.7505 25.8375 31.6568L28.3641 29.1433Q28.4595 29.0483 28.507 28.9334Q28.554 28.8198 28.554 28.6868Q28.554 28.5537 28.507 28.4401Q28.4595 28.3253 28.3641 28.2303ZM26.5941 29.0817L26.9485 29.0817L26.6972 29.3317L25.0997 30.921C24.9446 31.0753 24.9446 31.3253 25.0997 31.4796C25.2547 31.6338 25.5061 31.6338 25.6611 31.4796L28.1877 28.9661C28.3428 28.8118 28.3428 28.5617 28.1877 28.4075L25.6611 25.894C25.5061 25.7397 25.2547 25.7397 25.0997 25.894C24.9446 26.0482 24.9446 26.2983 25.0997 26.4526L26.6972 28.0418L26.9485 28.2918L2.76251 28.2918L2.76251 29.0817L26.5941 29.0817Z" fill="#FFFFFF" fill-opacity="1.000000" fill-rule="evenodd"/>
	<path id="Vector 3 (Stroke)" d="M14.0478 0.365662C14.2021 0.519897 14.2021 0.77002 14.0478 0.924255L9.30835 5.6637C9.15411 5.81799 8.90399 5.81799 8.74976 5.6637C8.59552 5.50946 8.59552 5.2594 8.74976 5.10516L13.4893 0.365662C13.6435 0.211426 13.8936 0.211426 14.0478 0.365662Z" fill="#FFFFFF" fill-opacity="1.000000" fill-rule="evenodd"/>
	<path id="Vector 3 (Stroke)" d="M14.0478 0.365662C13.8936 0.211426 13.6435 0.211426 13.4893 0.365662L8.74976 5.10516C8.59552 5.2594 8.59552 5.50946 8.74976 5.6637C8.90399 5.81799 9.15411 5.81799 9.30835 5.6637L14.0478 0.924255C14.2021 0.77002 14.2021 0.519897 14.0478 0.365662Z" stroke="#FFFFFF" stroke-opacity="1.000000" stroke-width="0.500000" stroke-linejoin="round"/>
	<path id="Vector 3.6 (Stroke)" d="M32.3476 19.1923C32.5018 19.3466 32.5018 19.5967 32.3476 19.7509L28.0031 24.0955C27.8488 24.2497 27.5987 24.2497 27.4445 24.0955C27.2902 23.9412 27.2902 23.6911 27.4445 23.5369L31.789 19.1923C31.9432 19.0381 32.1933 19.0381 32.3476 19.1923Z" fill="#FFFFFF" fill-opacity="1.000000" fill-rule="evenodd"/>
	<path id="Vector 3.6 (Stroke)" d="M32.3476 19.1923C32.1933 19.0381 31.9432 19.0381 31.789 19.1923L27.4445 23.5369C27.2902 23.6911 27.2902 23.9412 27.4445 24.0955C27.5987 24.2497 27.8488 24.2497 28.0031 24.0955L32.3476 19.7509C32.5018 19.5967 32.5018 19.3466 32.3476 19.1923Z" stroke="#FFFFFF" stroke-opacity="1.000000" stroke-width="0.500000" stroke-linejoin="round"/>
	<path id="Vector 3.1 (Stroke)" d="M19.9704 0.363892C20.1256 0.517151 20.1272 0.767212 19.9739 0.922424L9.70508 11.323C9.55182 11.4782 9.30176 11.4798 9.14655 11.3265C8.99127 11.1733 8.98969 10.9232 9.14294 10.768L19.4119 0.367493C19.5651 0.212219 19.8152 0.210632 19.9704 0.363892Z" fill="#FFFFFF" fill-opacity="1.000000" fill-rule="evenodd"/>
	<path id="Vector 3.1 (Stroke)" d="M19.9704 0.363892C19.8152 0.210632 19.5651 0.212219 19.4119 0.367493L9.14294 10.768C8.98969 10.9232 8.99127 11.1733 9.14655 11.3265C9.30176 11.4798 9.55182 11.4782 9.70508 11.323L19.9739 0.922424C20.1272 0.767212 20.1256 0.517151 19.9704 0.363892Z" stroke="#FFFFFF" stroke-opacity="1.000000" stroke-width="0.500000" stroke-linejoin="round"/>
	<path id="Vector 3.5 (Stroke)" d="M32.4791 12.6093C32.6334 12.7635 32.6334 13.0137 32.4791 13.1679L22.4736 23.1735C22.3193 23.3277 22.0692 23.3277 21.915 23.1735C21.7607 23.0192 21.7607 22.7692 21.915 22.6149L31.9206 12.6093C32.0748 12.4551 32.3249 12.4551 32.4791 12.6093Z" fill="#FFFFFF" fill-opacity="1.000000" fill-rule="evenodd"/>
	<path id="Vector 3.5 (Stroke)" d="M32.4791 12.6093C32.3249 12.4551 32.0748 12.4551 31.9206 12.6093L21.915 22.6149C21.7607 22.7692 21.7607 23.0192 21.915 23.1735C22.0692 23.3277 22.3193 23.3277 22.4736 23.1735L32.4791 13.1679C32.6334 13.0137 32.6334 12.7635 32.4791 12.6093Z" stroke="#FFFFFF" stroke-opacity="1.000000" stroke-width="0.500000" stroke-linejoin="round"/>
	<path id="Vector 3.2 (Stroke)" d="M26.2938 0.499756C26.4467 0.655273 26.4447 0.905334 26.2892 1.05829L9.8327 17.2516C9.67719 17.4045 9.42712 17.4025 9.27417 17.2471C9.12115 17.0916 9.12317 16.8416 9.27863 16.6885L25.7352 0.4953C25.8907 0.342285 26.1407 0.344299 26.2938 0.499756Z" fill="#FFFFFF" fill-opacity="1.000000" fill-rule="evenodd"/>
	<path id="Vector 3.2 (Stroke)" d="M26.2938 0.499756C26.1407 0.344299 25.8907 0.342285 25.7352 0.4953L9.27863 16.6885C9.12317 16.8416 9.12115 17.0916 9.27417 17.2471C9.42712 17.4025 9.67719 17.4046 9.8327 17.2516L26.2892 1.05829C26.4447 0.905334 26.4467 0.655273 26.2938 0.499756Z" stroke="#FFFFFF" stroke-opacity="1.000000" stroke-width="0.500000" stroke-linejoin="round"/>
	<path id="Vector 3.4 (Stroke)" d="M32.4792 6.42181C32.6334 6.57605 32.6334 6.82617 32.4792 6.98041L15.891 23.5686C15.7368 23.7228 15.4866 23.7228 15.3324 23.5686C15.1782 23.4144 15.1782 23.1643 15.3324 23.0101L31.9207 6.42181C32.0749 6.26758 32.325 6.26758 32.4792 6.42181Z" fill="#FFFFFF" fill-opacity="1.000000" fill-rule="evenodd"/>
	<path id="Vector 3.4 (Stroke)" d="M32.4792 6.42181C32.325 6.26758 32.0749 6.26758 31.9207 6.42181L15.3324 23.0101C15.1782 23.1643 15.1782 23.4144 15.3324 23.5686C15.4866 23.7228 15.7368 23.7228 15.891 23.5686L32.4792 6.98041C32.6334 6.82617 32.6334 6.57605 32.4792 6.42181Z" stroke="#FFFFFF" stroke-opacity="1.000000" stroke-width="0.500000" stroke-linejoin="round"/>
	<path id="Vector 3.3 (Stroke)" d="M32.2159 0.497498C32.3702 0.651733 32.3702 0.901855 32.2159 1.05609L9.57172 23.7003C9.41748 23.8546 9.16736 23.8546 9.01312 23.7003C8.85889 23.5461 8.85889 23.296 9.01312 23.1418L31.6574 0.497498C31.8116 0.343262 32.0617 0.343262 32.2159 0.497498Z" fill="#FFFFFF" fill-opacity="1.000000" fill-rule="evenodd"/>
	<path id="Vector 3.3 (Stroke)" d="M32.2159 0.497498C32.0617 0.343262 31.8116 0.343262 31.6574 0.497498L9.01312 23.1418C8.85889 23.296 8.85889 23.5461 9.01312 23.7003C9.16736 23.8546 9.41748 23.8546 9.57172 23.7003L32.2159 1.05609C32.3702 0.901855 32.3702 0.651733 32.2159 0.497498Z" stroke="#FFFFFF" stroke-opacity="1.000000" stroke-width="0.500000" stroke-linejoin="round"/>
</svg>
